HIERARCHY
ROOT Hips
{
  OFFSET 5.80788e-005 67.184 3.4734
  CHANNELS 6 Xposition Yposition Zposition Zrotation Xrotation Yrotation
  JOINT Chest
  {
    OFFSET 0 8.7983 -4.7612
    CHANNELS 3 Zrotation Xrotation Yrotation
    JOINT Chest2
    {
      OFFSET 0 8.0291 0.4195
      CHANNELS 3 Zrotation Xrotation Yrotation
      JOINT Chest3
      {
        OFFSET 0 9.9351 -2.2114
        CHANNELS 3 Zrotation Xrotation Yrotation
        JOINT Neck
        {
          OFFSET 0 22.3885 -0.4656
          CHANNELS 3 Zrotation Xrotation Yrotation
          JOINT Head
          {
            OFFSET -0.0001 12.643 3.4389
            CHANNELS 3 Zrotation Xrotation Yrotation
            End Site
            {
              OFFSET 0.0001 17.6655 0.5274
            }
          }
        }
        JOINT LeftCollar
        {
          OFFSET 2.2603 21.606 7.4023
          CHANNELS 3 Zrotation Xrotation Yrotation
          JOINT LeftShoulder
          {
            OFFSET 13.5163 -1.1332 -5.0146
            CHANNELS 3 Zrotation Xrotation Yrotation
            JOINT LeftElbow
            {
              OFFSET -0.0995 -28.05 -0.2431
              CHANNELS 3 Zrotation Xrotation Yrotation
              JOINT LeftWrist
              {
                OFFSET 0.0679 -23.3996 -0.1402
                CHANNELS 3 Zrotation Xrotation Yrotation
                JOINT LeftFinger1
                {
                  OFFSET 0.7932 -9.069 2.5189
                  CHANNELS 3 Zrotation Xrotation Yrotation
                  JOINT LeftFinger11
                  {
                    OFFSET -0.8272 -3.3923 0.5977
                    CHANNELS 3 Zrotation Xrotation Yrotation
                    JOINT LeftFinger12
                    {
                      OFFSET -0.5649 -2.3158 0.4082
                      CHANNELS 3 Zrotation Xrotation Yrotation
                      End Site
                      {
                        OFFSET -0.4919 -1.6479 0.2673
                      }
                    }
                  }
                }
                JOINT LeftFinger2
                {
                  OFFSET 0.9159 -9.2044 0.2193
                  CHANNELS 3 Zrotation Xrotation Yrotation
                  JOINT LeftFinger21
                  {
                    OFFSET 0.0117 -4.1944 -0.0248
                    CHANNELS 3 Zrotation Xrotation Yrotation
                    JOINT LeftFinger22
                    {
                      OFFSET 0.0071 -2.3249 -0.0142
                      CHANNELS 3 Zrotation Xrotation Yrotation
                      End Site
                      {
                        OFFSET -0.1475 -2.0882 0.0028
                      }
                    }
                  }
                }
                JOINT LeftFinger3
                {
                  OFFSET 0.6113 -8.7231 -2.0637
                  CHANNELS 3 Zrotation Xrotation Yrotation
                  JOINT LeftFinger31
                  {
                    OFFSET -0.1927 -3.8059 -0.2383
                    CHANNELS 3 Zrotation Xrotation Yrotation
                    JOINT LeftFinger32
                    {
                      OFFSET -0.1091 -2.1688 -0.1362
                      CHANNELS 3 Zrotation Xrotation Yrotation
                      End Site
                      {
                        OFFSET -0.2358 -1.9176 -0.0906
                      }
                    }
                  }
                }
                JOINT LeftFinger4
                {
                  OFFSET -0.6151 -8.0947 -3.5641
                  CHANNELS 3 Zrotation Xrotation Yrotation
                  JOINT LeftFinger41
                  {
                    OFFSET -0.4882 -2.341 -0.6462
                    CHANNELS 3 Zrotation Xrotation Yrotation
                    JOINT LeftFinger42
                    {
                      OFFSET -0.3575 -1.7167 -0.4742
                      CHANNELS 3 Zrotation Xrotation Yrotation
                      End Site
                      {
                        OFFSET -0.4187 -1.5237 -0.3496
                      }
                    }
                  }
                }
                JOINT LeftFinger0
                {
                  OFFSET -1.42 -1.8761 1.4223
                  CHANNELS 3 Zrotation Xrotation Yrotation
                  JOINT LeftFinger01
                  {
                    OFFSET -1.1471 -3.4929 2.6334
                    CHANNELS 3 Zrotation Xrotation Yrotation
                    JOINT LeftFinger02
                    {
                      OFFSET -0.823 -2.3 1.6571
                      CHANNELS 3 Zrotation Xrotation Yrotation
                      End Site
                      {
                        OFFSET -0.5822 -1.6914 1.1582
                      }
                    }
                  }
                }
              }
            }
          }
        }
        JOINT RightCollar
        {
          OFFSET -2.2603 21.606 7.4023
          CHANNELS 3 Zrotation Xrotation Yrotation
          JOINT RightShoulder
          {
            OFFSET -13.5187 -1.1334 -5.0155
            CHANNELS 3 Zrotation Xrotation Yrotation
            JOINT RightElbow
            {
              OFFSET 0.0994 -28.0499 -0.2431
              CHANNELS 3 Zrotation Xrotation Yrotation
              JOINT RightWrist
              {
                OFFSET -0.0679 -23.3996 -0.1402
                CHANNELS 3 Zrotation Xrotation Yrotation
                JOINT RightFinger1
                {
                  OFFSET -0.7932 -9.0691 2.5189
                  CHANNELS 3 Zrotation Xrotation Yrotation
                  JOINT RightFinger11
                  {
                    OFFSET 0.8272 -3.3923 0.5977
                    CHANNELS 3 Zrotation Xrotation Yrotation
                    JOINT RightFinger12
                    {
                      OFFSET 0.565 -2.3158 0.4082
                      CHANNELS 3 Zrotation Xrotation Yrotation
                      End Site
                      {
                        OFFSET 0.4919 -1.6479 0.2673
                      }
                    }
                  }
                }
                JOINT RightFinger2
                {
                  OFFSET -0.916 -9.2044 0.2193
                  CHANNELS 3 Zrotation Xrotation Yrotation
                  JOINT RightFinger21
                  {
                    OFFSET -0.0117 -4.1944 -0.0248
                    CHANNELS 3 Zrotation Xrotation Yrotation
                    JOINT RightFinger22
                    {
                      OFFSET -0.0071 -2.3249 -0.0142
                      CHANNELS 3 Zrotation Xrotation Yrotation
                      End Site
                      {
                        OFFSET 0.1475 -2.0882 0.0028
                      }
                    }
                  }
                }
                JOINT RightFinger3
                {
                  OFFSET -0.6113 -8.7231 -2.0637
                  CHANNELS 3 Zrotation Xrotation Yrotation
                  JOINT RightFinger31
                  {
                    OFFSET 0.1927 -3.8059 -0.2383
                    CHANNELS 3 Zrotation Xrotation Yrotation
                    JOINT RightFinger32
                    {
                      OFFSET 0.1091 -2.1688 -0.1362
                      CHANNELS 3 Zrotation Xrotation Yrotation
                      End Site
                      {
                        OFFSET 0.2358 -1.9176 -0.0906
                      }
                    }
                  }
                }
                JOINT RightFinger4
                {
                  OFFSET 0.6151 -8.0947 -3.564
                  CHANNELS 3 Zrotation Xrotation Yrotation
                  JOINT RightFinger41
                  {
                    OFFSET 0.4882 -2.341 -0.6462
                    CHANNELS 3 Zrotation Xrotation Yrotation
                    JOINT RightFinger42
                    {
                      OFFSET 0.3574 -1.7166 -0.4742
                      CHANNELS 3 Zrotation Xrotation Yrotation
                      End Site
                      {
                        OFFSET 0.4187 -1.5237 -0.3496
                      }
                    }
                  }
                }
                JOINT RightFinger0
                {
                  OFFSET 1.4199 -1.8761 1.4221
                  CHANNELS 3 Zrotation Xrotation Yrotation
                  JOINT RightFinger01
                  {
                    OFFSET 1.1472 -3.4929 2.6336
                    CHANNELS 3 Zrotation Xrotation Yrotation
                    JOINT RightFinger02
                    {
                      OFFSET 0.8229 -2.3 1.6571
                      CHANNELS 3 Zrotation Xrotation Yrotation
                      End Site
                      {
                        OFFSET 0.5822 -1.6914 1.1582
                      }
                    }
                  }
                }
              }
            }
          }
        }
      }
    }
  }
  JOINT RightHip
  {
    OFFSET -9.412 3.9771 -0.7758
    CHANNELS 3 Zrotation Xrotation Yrotation
    JOINT RightKnee
    {
      OFFSET -0.7531 -40.938 0
      CHANNELS 3 Zrotation Xrotation Yrotation
      JOINT RightAnkle
      {
        OFFSET 0 -40.1986 0
        CHANNELS 3 Zrotation Xrotation Yrotation
        JOINT RightToe
        {
          OFFSET 0 -4.4182 9.239
          CHANNELS 3 Zrotation Xrotation Yrotation
          End Site
          {
            OFFSET 0 0 6.1981
          }
        }
      }
    }
  }
  JOINT LeftHip
  {
    OFFSET 9.4119 3.9773 -0.7758
    CHANNELS 3 Zrotation Xrotation Yrotation
    JOINT LeftKnee
    {
      OFFSET 0.7532 -40.9383 0
      CHANNELS 3 Zrotation Xrotation Yrotation
      JOINT LeftAnkle
      {
        OFFSET 0 -40.1986 0
        CHANNELS 3 Zrotation Xrotation Yrotation
        JOINT LeftToe
        {
          OFFSET 0 -4.4182 9.239
          CHANNELS 3 Zrotation Xrotation Yrotation
          End Site
          {
            OFFSET 0 0 6.1981
          }
        }
      }
    }
  }
}
MOTION
Frames:	5
Frame Time:	0.0333333
39.8262 41.5639 18.7085 179.997 58.9947 3.01462e-008 -0.0293842 9.03476 -0.0834891 -0.0461185 18.0696 -0.165367 -0.0461186 18.0696 -0.165367 3.03435 0.350798 -0.599861 5.10326e-007 0.0601603 7.9258e-007 -12.3879 -4.01857 -16.4598 41.9267 12.7067 -35.4961 0.401467 -14.9349 -35.8695 2.52958 -0.581969 7.64497 1.59028e-015 -6.36111e-015 2.78299e-015 -4.92048e-006 -1.40781e-005 -2.26843e-006 -1.59028e-015 -9.54166e-015 -3.97569e-016 1.59028e-015 -6.36111e-015 2.78299e-015 -0.0128602 0.0023207 8.29173e-005 -7.95139e-016 0 -2.98177e-015 1.59028e-015 -6.36111e-015 2.78299e-015 -0.0160499 0.00298107 0.000852257 1.59028e-015 3.18055e-015 4.57205e-015 1.59028e-015 -6.36111e-015 2.78299e-015 -0.0125719 0.00310309 0.00282579 7.95139e-016 -6.36111e-015 5.96354e-016 1.59028e-015 -6.36111e-015 2.78299e-015 -4.92048e-006 -1.40781e-005 -2.26843e-006 -1.59028e-015 -9.54166e-015 -3.97569e-016 5.62548 -5.11755 10.1094 -35.241 8.38443 39.0649 1.56674 -19.3101 36.2428 -2.28155 5.67794 -5.61088 -4.77083e-015 6.36111e-015 1.19271e-014 -5.56597e-015 3.18055e-015 9.14409e-015 -1.86437e-006 1.36678e-006 -1.79533e-006 -4.77083e-015 6.36111e-015 1.19271e-014 0.0129934 0.00232197 -8.89967e-005 -8.82781e-032 -3.18055e-015 -1.59028e-015 -4.77083e-015 6.36111e-015 1.19271e-014 0.0162987 0.00303819 -0.000871851 -3.3216e-006 2.18448e-006 -1.78187e-006 -4.77083e-015 6.36111e-015 1.19271e-014 0.0145721 0.00367556 -0.00326408 1.98626e-031 3.18055e-015 -3.57812e-015 -4.77083e-015 6.36111e-015 1.19271e-014 -5.56597e-015 3.18055e-015 9.14409e-015 -1.86437e-006 1.36678e-006 -1.79533e-006 -51.8727 -73.2941 -81.8408 -1.57422 35.0622 42.1512 -23.5001 -2.31695 -6.92266 -2.80629e-008 1.15798e-009 4.2507e-007 54.5524 -71.6234 84.3332 1.57415 34.9222 -42.172 21.128 -2.46216 5.78005 6.71249e-008 2.22438e-009 -8.48992e-007 
39.8275 41.564 18.7081 179.997 58.9947 -6.0697e-009 -0.0291143 8.95199 -0.0836031 -0.0456663 17.904 -0.16563 -0.0456663 17.9041 -0.165631 3.25536 0.878047 -0.65796 -5.74187e-007 0.0597172 5.1127e-007 -12.8087 -3.77904 -16.2985 42.2533 12.7695 -35.5487 0.401627 -14.935 -35.8695 2.43417 -0.683538 7.45125 5.86826e-006 -1.77494e-006 -2.13051e-006 -7.95139e-016 0 9.93923e-016 -1.32417e-031 6.36111e-015 1.19271e-015 5.86826e-006 -1.77494e-006 -2.13051e-006 -0.0128163 0.00234123 8.79473e-005 -1.59028e-015 -6.36111e-015 -1.19271e-015 5.86826e-006 -1.77494e-006 -2.13051e-006 -0.0160716 0.00300589 0.000853567 -0 0 3.97569e-016 5.86826e-006 -1.77494e-006 -2.13051e-006 -0.0125614 0.00311811 0.00281878 0 9.54166e-015 -0 5.86826e-006 -1.77494e-006 -2.13051e-006 -7.95139e-016 0 9.93923e-016 -1.32417e-031 6.36111e-015 1.19271e-015 5.99834 -4.83183 9.96463 -35.5234 8.41655 39.0858 1.56733 -19.31 36.2429 -2.22268 5.57931 -5.42147 -5.996e-006 5.00281e-006 1.39723e-006 -1.59028e-015 6.36111e-015 7.95139e-016 5.996e-006 -5.00281e-006 -1.39723e-006 -5.996e-006 5.00281e-006 1.39723e-006 0.0129919 0.00234523 -9.3708e-005 7.95139e-016 3.18055e-015 1.59028e-015 -5.996e-006 5.00281e-006 1.39723e-006 0.0163386 0.00303727 -0.00088025 -7.95139e-016 3.18055e-015 -3.97569e-016 -5.996e-006 5.00281e-006 1.39723e-006 0.0146146 0.00368592 -0.00326655 -1.04035e-006 -2.84984e-006 -8.67852e-006 -5.996e-006 5.00281e-006 1.39723e-006 -1.59028e-015 6.36111e-015 7.95139e-016 5.996e-006 -5.00281e-006 -1.39723e-006 -52.1572 -73.1327 -82.1072 -1.57384 35.0492 42.1519 -23.3021 -2.33114 -6.82812 2.85712e-008 4.21936e-007 -4.25027e-007 54.5855 -71.6016 84.3634 1.57412 34.9212 -42.1721 21.1264 -2.46171 5.77982 -1.65814e-006 -1.1847e-006 2.60425e-007 
39.8287 41.564 18.7078 179.997 58.9947 6.47435e-009 -0.0288352 8.86922 -0.0837219 -0.0451953 17.7385 -0.165905 -0.0451954 17.7386 -0.165905 3.47708 1.40537 -0.718141 -1.08705e-007 0.059241 4.12674e-007 -13.23 -3.54071 -16.1356 42.5795 12.8329 -35.6017 0.402723 -14.9354 -35.8695 2.33846 -0.784811 7.25733 4.88147e-007 4.39294e-006 3.72466e-006 -7.95139e-016 -6.36111e-015 -3.97569e-016 -0 0 5.96354e-016 4.88147e-007 4.39294e-006 3.72466e-006 -0.012782 0.00232751 9.10507e-005 -3.18055e-015 0 -2.18663e-015 4.88147e-007 4.39294e-006 3.72466e-006 -0.0160884 0.00300167 0.000858929 -0 0 2.18663e-015 4.88147e-007 4.39294e-006 3.72466e-006 -0.0126019 0.00312315 0.00283583 -3.64147e-031 9.54166e-015 2.18663e-015 4.88147e-007 4.39294e-006 3.72466e-006 -7.95139e-016 -6.36111e-015 -3.97569e-016 -0 0 5.96354e-016 6.37174 -4.54711 9.81811 -35.8054 8.44902 39.107 1.56728 -19.3101 36.2429 -2.1635 5.48098 -5.23198 7.95139e-016 -9.54166e-015 2.38542e-015 -7.95139e-016 -6.36111e-015 2.78299e-015 1.59028e-015 -3.18055e-015 1.19271e-015 7.95139e-016 -9.54166e-015 2.38542e-015 0.0129767 0.00232406 -8.52535e-005 7.95139e-016 0 -1.98785e-015 7.95139e-016 -9.54166e-015 2.38542e-015 0.0163225 0.00303751 -0.000879548 -3.19418e-006 -3.23998e-006 -1.16042e-006 7.95139e-016 -9.54166e-015 2.38542e-015 0.0145779 0.00367022 -0.00326114 1.59028e-015 -3.18055e-015 3.97569e-016 7.95139e-016 -9.54166e-015 2.38542e-015 -7.95139e-016 -6.36111e-015 2.78299e-015 1.59028e-015 -3.18055e-015 1.19271e-015 -52.4382 -72.9709 -82.3702 -1.57336 35.037 42.1526 -23.1041 -2.34512 -6.73357 1.59163e-006 -6.95077e-008 5.6984e-007 54.6186 -71.5798 84.3936 1.57409 34.9202 -42.1723 21.1248 -2.46122 5.77956 -3.36653e-008 1.29146e-006 4.24495e-007 
39.83 41.5641 18.7075 179.997 58.9947 -1.3151e-008 -0.0285632 8.78649 -0.0838332 -0.0447405 17.5731 -0.166162 -0.0447406 17.5731 -0.166163 3.69955 1.93271 -0.780412 -7.94896e-007 0.0587983 1.33376e-006 -13.6518 -3.30365 -15.9709 42.9085 12.8916 -35.6556 0.399067 -14.9339 -35.8695 2.24236 -0.885685 7.06327 2.38542e-015 -1.27222e-014 -1.98785e-016 1.59028e-015 -6.36111e-015 2.78299e-015 7.95139e-016 -9.54166e-015 3.97569e-016 2.38542e-015 -1.27222e-014 -1.98785e-016 -0.0128095 0.00230959 8.31544e-005 3.18055e-015 -6.36111e-015 -0 2.38542e-015 -1.27222e-014 -1.98785e-016 -0.0160265 0.00297513 0.000843829 2.64834e-031 -3.18055e-015 4.77083e-015 2.38542e-015 -1.27222e-014 -1.98785e-016 -0.0126059 0.00313187 0.00282595 0 6.36111e-015 -0 2.38542e-015 -1.27222e-014 -1.98785e-016 1.59028e-015 -6.36111e-015 2.78299e-015 7.95139e-016 -9.54166e-015 3.97569e-016 6.74568 -4.26337 9.6698 -36.0876 8.48132 39.1283 1.56735 -19.3101 36.2429 -2.104 5.38271 -5.04245 -1.01032e-005 -3.06209e-007 4.64382e-006 1.28934e-005 -4.93422e-006 -7.22675e-006 -7.95139e-016 0 1.98785e-015 -1.01032e-005 -3.06209e-007 4.64382e-006 0.0129417 0.00230864 -8.88991e-005 7.95139e-016 3.18055e-015 -0 -1.01032e-005 -3.06209e-007 4.64382e-006 0.0163525 0.00303238 -0.000881921 -7.95139e-016 -6.36111e-015 -7.95139e-016 -1.01032e-005 -3.06209e-007 4.64382e-006 0.0145895 0.00366306 -0.00326426 -3.33352e-006 4.29748e-006 -1.75353e-006 -1.01032e-005 -3.06209e-007 4.64382e-006 1.28934e-005 -4.93422e-006 -7.22675e-006 -7.95139e-016 0 1.98785e-015 -52.7127 -72.8089 -82.6267 -1.57301 35.0243 42.1533 -22.9061 -2.35884 -6.63898 -2.95893e-008 6.11566e-010 4.24937e-007 54.6517 -71.558 84.4238 1.57406 34.9192 -42.1725 21.1233 -2.46075 5.77928 -3.37166e-008 -4.27184e-007 4.24494e-007 
39.8312 41.5641 18.7072 179.997 58.9946 -1.4365e-008 -0.0282926 8.70378 -0.0839424 -0.0442894 17.4077 -0.166414 -0.0442893 17.4077 -0.166415 3.92278 2.46015 -0.844793 1.10277e-007 0.0583559 -4.1221e-007 -14.0741 -3.06782 -15.8046 43.2333 12.9569 -35.7089 0.402896 -14.9356 -35.8695 2.14592 -0.986226 6.86902 1.10348e-032 3.18055e-015 -1.98785e-016 -3.31043e-031 6.36111e-015 2.98177e-015 -3.53113e-031 6.36111e-015 3.18055e-015 1.10348e-032 3.18055e-015 -1.98785e-016 -0.0128278 0.00232634 8.7053e-005 6.36111e-015 3.18055e-015 -1.13307e-014 1.10348e-032 3.18055e-015 -1.98785e-016 -0.0160062 0.00298377 0.000852239 0 0 -5.96354e-016 1.10348e-032 3.18055e-015 -1.98785e-016 -0.012553 0.00310589 0.00281701 -1.59028e-015 -6.36111e-015 -2.98177e-015 1.10348e-032 3.18055e-015 -1.98785e-016 -3.31043e-031 6.36111e-015 2.98177e-015 -3.53113e-031 6.36111e-015 3.18055e-015 7.12015 -3.98066 9.51971 -36.3696 8.5136 39.1496 1.56727 -19.3101 36.2429 -2.04419 5.28469 -4.85281 -2.64834e-031 6.36111e-015 2.38542e-015 1.32602e-006 5.34465e-006 -6.32528e-007 -7.95139e-016 3.18055e-015 1.19271e-015 -2.64834e-031 6.36111e-015 2.38542e-015 0.012934 0.00229935 -8.29418e-005 -2.38542e-015 0 -3.18055e-015 -2.64834e-031 6.36111e-015 2.38542e-015 0.0163343 0.00303746 -0.000877601 7.95139e-016 3.18055e-015 3.97569e-016 -2.64834e-031 6.36111e-015 2.38542e-015 0.0145806 0.00367655 -0.00325967 -0 -3.18055e-015 -0 -2.64834e-031 6.36111e-015 2.38542e-015 1.32602e-006 5.34465e-006 -6.32528e-007 -7.95139e-016 3.18055e-015 1.19271e-015 -52.9839 -72.6464 -82.8799 -1.57256 35.0122 42.1539 -22.7081 -2.37227 -6.54438 1.59089e-006 -6.89208e-008 5.73917e-007 54.6844 -71.5362 84.4536 1.57404 34.9182 -42.1727 21.1217 -2.46031 5.77904 3.37682e-008 -4.26443e-007 -4.24493e-007 
